# xmcd CD database file
#
# Track frame offsets:
#	182
#	21267
#	35905
#	54247
#	65032
#	79010
#	94635
#	107740
#	122055
#	136007
#	155630
#	171270
#
# Disc length: 2518 seconds
#
# Revision: 6
# Processed by: cddbd v1.5.2PL0 Copyright (c) Steve Scherf et al.
# Submitted via: CDex 1.51
#
DISCID=9e09d40c
DTITLE=Cox Family - Just When We're Thinking It's Over
DYEAR=1996
DGENRE=Bluegrass
TTITLE0=I Feel The Blues Moving In
TTITLE1=Who's Gonna Pay for This Broken Heart
TTITLE2=You've Got Me To Hold On To Baby
TTITLE3=A Good Man Like Me
TTITLE4=Runaway
TTITLE5=Love Of A Lifetime
TTITLE6=Cry Baby Cry
TTITLE7=Nothing Else I Can Do
TTITLE8=I Just Don't Like This Kind of Living
TTITLE9=Just When We're Thinking It's Over
TTITLE10=That's The Way Love Is
TTITLE11=Backroads
EXTD=YEAR: 1996
EXTT0=
EXTT1=
EXTT2=
EXTT3=
EXTT4=
EXTT5=
EXTT6=
EXTT7=
EXTT8=
EXTT9=
EXTT10=
EXTT11=
PLAYORDER=
